<svg xmlns="http://www.w3.org/2000/svg" width="512" height="512" viewBox="0 0 512 512"><path fill="#c68cff" d="M142.519 255.678c0-93.223 40.415-144.565 113.804-144.565 72.759 0 112.837 50.889 112.837 143.306 0 93.091-41.133 146.47-112.837 146.47-71.265-.001-113.804-54.288-113.804-145.211zM494.33 220.75C481.25 84.44 392.46.26 256 0h-.63C105.49 0 16 97.4 16 258.86c0 155.3 91.94 252.87 240 253.14h.63C404.27 512 496 413.53 496 256.63c0-12.3-.56-24.27-1.67-35.88z"/><path fill="#aa80ff" d="M496 256.63C496 413.53 404.27 512 256.63 512H256V400.86c.11 0 .21.03.32.03 71.71 0 112.84-53.38 112.84-146.47 0-92.42-40.08-143.31-112.84-143.31-.11 0-.21.03-.32.03V0c136.46.26 225.25 84.44 238.33 220.75 1.11 11.61 1.67 23.58 1.67 35.88z"/></svg>